# xmcd
#
# Track frame offsets: 
#        183
#        9398
#        25668
#        56493
#        70330
#        89663
#        108310
#        122803
#        140758
#        163155
#        186093
#        207228
#
# Disc length: 2826 seconds
#
# Revision: 6
# Processed by: cddbd v1.5.2PL0 Copyright (c) Steve Scherf et al.
# Submitted via: ExactAudioCopyFreeDBPlugin 1.0
#
DISCID=a90b080c
DTITLE=Various Artist - Big Easy Soundtrack
DYEAR=1987
DGENRE=Soundtrack
TTITLE0=The Dixie Cups - Iko Iko
TTITLE1=Professor Longhair - Tipitina
TTITLE2=Buckwheat Zydeco - Ma 'Tit Fille
TTITLE3=Zachary Richard - Colinda
TTITLE4=Aaron Neville and The Neville Brothers - Tell It Like It Is
TTITLE5=Beausoleil - Zydeco Gris Gris
TTITLE6=Terrance Simien and The Mallet Playboys - Oh Yeh Yal
TTITLE7=The Wild Tchoupitoulas - Hey Hey (Indians Comin')
TTITLE8=Dennis Quaid - Closer To You
TTITLE9=The Swan Silvertones - Saviour, Pass Me Not
TTITLE10=Buckwheat Zydeco and Ils Sont Partis Band - Buck's Nouvelle Jol
TTITLE10=e Blon
TTITLE11=Dewey Balfa - Pine Grove Blues
EXTD=YEAR: 1987
EXTT0=The Dixie Cups
EXTT1=Professor Longhair
EXTT2=Buckwheat Zydeco
EXTT3=Zachary Richard
EXTT4=Aaron Neville and The Neville Brothers
EXTT5=Beausoleil
EXTT6=Terrance Simien and The mallet Playboys
EXTT7=The Wild Tchoupitoulas
EXTT8=Dennis Quaid
EXTT9=The Swan Silvertones
EXTT10=Buckwheat Zydeco , and Ils Sont Partis Band
EXTT11=Dewey Balfa
PLAYORDER=
